<svg width="80" height="80" viewBox="0 0 80 80" fill="none" xmlns="http://www.w3.org/2000/svg">
<g id="SVG">
<path id="Vector" d="M59.4297 57.7037V63.3861L67.2551 57.3305C66.5327 55.2959 64.5102 54.7662 62.6562 55.5848C60.8022 56.4035 59.4297 57.7157 59.4297 57.7157" fill="#00BBB4"/>
<path id="Vector_2" d="M58.3574 65.577V57.246L58.6945 56.933C58.7547 56.8728 60.2355 55.4762 62.234 54.5974C63.5101 54.0316 64.8946 53.9954 66.0263 54.489C67.0857 54.9465 67.8562 55.8013 68.2776 56.9811L68.5305 57.7155L58.3695 65.589L58.3574 65.577ZM60.5004 58.1971V61.2068L65.8939 57.0293C65.7012 56.7765 65.4605 56.5838 65.1595 56.4514C64.5696 56.1986 63.8112 56.2347 63.0888 56.5598C61.9331 57.0654 60.982 57.7877 60.5004 58.1971Z" fill="#00BBB4"/>
<path id="Vector_3" d="M66.4472 67.7202C66.1583 67.7202 65.8695 67.5998 65.6528 67.371C65.2555 66.9376 65.2795 66.2514 65.7249 65.8541L71.8047 60.3041C71.7686 59.8707 71.5158 58.9678 70.9379 58.4621C70.5888 58.1612 70.2035 58.101 69.6979 58.2816C67.6271 59.0039 62.5346 63.5065 60.7528 65.1799C60.3194 65.5893 59.6452 65.5652 59.2359 65.1318C58.8265 64.6984 58.8507 64.0242 59.2841 63.6148C59.9703 62.9647 66.1101 57.2582 68.9874 56.259C70.3599 55.7774 71.6481 56.0905 72.6233 57.1258C73.6707 58.2454 74.2246 60.2078 73.7912 61.2552L73.6947 61.4719L67.1576 67.4433C66.953 67.6359 66.688 67.7202 66.4352 67.7202H66.4472Z" fill="#00BBB4"/>
<path id="Vector_4" d="M38.5042 79.988C38.155 79.988 37.8059 79.9639 37.4809 79.9157C31.7383 79.1091 17.9655 71.4643 17.3756 71.1393L16.8339 70.8383L16.6895 55.8377L17.2072 55.5247C17.448 55.3802 23.0943 52.0093 30.4501 54.5856C33.9655 55.8136 36.3252 57.5352 38.4079 59.0521C40.5508 60.6172 42.4048 61.9535 45.0774 62.4832C46.9314 62.8444 49.6403 62.9046 52.5056 62.9648C58.3565 63.0852 64.4121 63.2176 66.7959 65.8782C67.7831 66.9858 68.0117 68.274 67.4099 69.4177C66.1217 71.8616 61.3783 73.2702 54.7448 73.3906C53.0473 74.4741 44.1505 80 38.5042 80V79.988ZM18.9648 69.5742C21.6014 71.0069 33.0385 77.1227 37.7819 77.7969C41.0083 78.2544 46.7629 75.5215 50.6997 73.3063C48.9179 73.21 47.0398 73.0415 45.0895 72.7887C44.4996 72.7164 44.0902 72.1747 44.1624 71.5847C44.2347 70.9948 44.7764 70.5855 45.3663 70.6577C48.7614 71.0911 51.735 71.2597 54.2994 71.2356C54.3716 71.2356 54.4559 71.2356 54.5282 71.2356C61.0774 71.1393 64.8095 69.7548 65.5198 68.3944C65.6041 68.2379 65.7726 67.9128 65.2068 67.2868C63.4491 65.3244 57.3572 65.192 52.4694 65.0957C49.5078 65.0355 46.7148 64.9753 44.6802 64.578C41.55 63.964 39.4191 62.423 37.1678 60.7857C35.1092 59.2929 32.9782 57.7399 29.7638 56.6082C24.587 54.8023 20.3012 56.4035 18.8686 57.0897L18.9889 69.5742H18.9648Z" fill="#00BBB4"/>
<path id="Vector_5" d="M17.7618 74.0525H8.55196C7.96205 74.0525 7.48047 73.5709 7.48047 72.981V53.8028C7.48047 53.2129 7.96205 52.7314 8.55196 52.7314H17.7618C18.3518 52.7314 18.8333 53.2129 18.8333 53.8028V72.981C18.8333 73.5709 18.3518 74.0525 17.7618 74.0525ZM9.62345 71.9095H16.6904V54.8743H9.62345V71.9095Z" fill="#00BBB4"/>
<path id="Vector_6" d="M37.4575 25.1621H49.3882C50.7727 25.1621 51.9044 26.2817 51.9044 27.6662C51.9044 29.0507 50.7848 30.1703 49.3882 30.1703H37.4575C36.073 30.1703 34.9414 29.0507 34.9414 27.6662C34.9414 26.2817 36.061 25.1621 37.4575 25.1621Z" fill="#00BBB4"/>
<path id="Vector_7" d="M49.3875 31.242H37.4567C35.4823 31.242 33.8691 29.6408 33.8691 27.6664C33.8691 25.692 35.4703 24.0908 37.4567 24.0908H49.3875C51.3619 24.0908 52.9751 25.692 52.9751 27.6664C52.9751 29.6408 51.3739 31.242 49.3875 31.242ZM37.4567 26.2217C36.6622 26.2217 36.0121 26.8718 36.0121 27.6543C36.0121 28.4369 36.6622 29.087 37.4567 29.087H49.3875C50.182 29.087 50.8321 28.4369 50.8321 27.6543C50.8321 26.8718 50.182 26.2217 49.3875 26.2217H37.4567Z" fill="#00BBB4"/>
<path id="Vector_8" d="M21.8307 28.3766H12.2356C11.6457 28.3766 11.1641 27.8951 11.1641 27.3052V16.3496L6.0596 16.2774C5.65027 16.2774 5.27701 16.0366 5.10847 15.6634C4.92788 15.2902 4.97601 14.8568 5.22883 14.5438L16.3649 0.40997C16.5696 0.145112 16.8946 -0.0113913 17.2197 0.000647733C17.5567 0.000647733 17.8698 0.169195 18.0625 0.434053L28.5484 14.6521C28.7892 14.9772 28.8254 15.4106 28.6448 15.7718C28.4642 16.1329 28.091 16.3617 27.6937 16.3617H22.9022V27.3052C22.9022 27.8951 22.4206 28.3766 21.8307 28.3766ZM13.307 26.2337H20.7592V15.2902C20.7592 14.7003 21.2408 14.2187 21.8307 14.2187H25.5748L17.1836 2.84186L8.25063 14.1585L12.2356 14.2187C12.8255 14.2187 13.2951 14.7003 13.2951 15.2902V26.2337H13.307Z" fill="#00BBB4"/>
<path id="Vector_9" d="M16.8835 34.0349C16.5464 34.0349 16.2695 33.758 16.2695 33.4209V18.3962C16.2695 18.0591 16.5464 17.7822 16.8835 17.7822C17.2206 17.7822 17.4975 18.0591 17.4975 18.3962V33.4209C17.4975 33.758 17.2206 34.0349 16.8835 34.0349Z" fill="#00BBB4"/>
<path id="Vector_10" d="M60.2848 10.8357V18.1073H66.0997V10.8357H69.6512L63.2946 2.21582L56.5527 10.7755L60.2848 10.8357Z" fill="#00BBB4"/>
<path id="Vector_11" d="M66.099 19.1787H60.284C59.6941 19.1787 59.2125 18.6971 59.2125 18.1072V11.883L56.5399 11.8469C56.1306 11.8469 55.7695 11.6061 55.5889 11.2329C55.4083 10.8597 55.4565 10.4263 55.7093 10.1133L62.4511 1.55353C62.6558 1.28867 62.9688 1.13217 63.3058 1.1442C63.6429 1.1442 63.956 1.31275 64.1487 1.57761L70.4931 10.1855C70.7339 10.5106 70.7701 10.944 70.5895 11.3052C70.4089 11.6663 70.0357 11.8951 69.6384 11.8951H67.1584V18.0952C67.1584 18.6851 66.6768 19.1667 66.0869 19.1667L66.099 19.1787ZM61.3555 17.0357H65.0275V10.8356C65.0275 10.2457 65.5091 9.76415 66.099 9.76415H67.5316L63.2817 3.98542L58.7551 9.74007L60.3202 9.76415C60.9101 9.76415 61.3796 10.2457 61.3796 10.8356V17.0357H61.3555Z" fill="#00BBB4"/>
<path id="Vector_12" d="M63.1003 22.4174C62.7632 22.4174 62.4863 22.1405 62.4863 21.8034V12.7019C62.4863 12.3648 62.7632 12.0879 63.1003 12.0879C63.4374 12.0879 63.7143 12.3648 63.7143 12.7019V21.8034C63.7143 22.1405 63.4374 22.4174 63.1003 22.4174Z" fill="#00BBB4"/>
<path id="Vector_13" d="M59.4295 64.4698H59.4174L49.5333 64.3133C49.0398 64.3133 48.5581 64.3133 48.0886 64.3253C44.6334 64.4216 41.0699 64.5059 32.787 57.4029C32.2091 56.9093 29.5846 56.1508 27.4898 55.7415C26.9842 55.6452 26.623 55.1997 26.623 54.6941V46.3149C26.623 36.9846 34.0992 29.2677 43.273 29.1111C47.8598 29.0389 52.1818 30.7605 55.4444 33.9749C58.707 37.1893 60.5129 41.4752 60.5129 46.05V63.3983C60.5129 63.6872 60.3926 63.9641 60.188 64.1567C59.9832 64.3494 59.7183 64.4698 59.4414 64.4698H59.4295ZM49.2203 62.1703C49.3407 62.1703 49.4491 62.1703 49.5695 62.1703L58.3579 62.3148V46.0621C58.3579 42.0651 56.7928 38.321 53.9395 35.5159C51.0863 32.7108 47.3181 31.2059 43.3091 31.2661C35.2911 31.3985 28.766 38.1524 28.766 46.3269V53.8393C30.295 54.1764 33.1482 54.9108 34.1836 55.8017C41.8404 62.375 44.8502 62.2907 48.0405 62.2064C48.4258 62.2064 48.823 62.1824 49.2324 62.1824L49.2203 62.1703Z" fill="#00BBB4"/>
<path id="Vector_14" d="M43.7421 26.2335C39.6488 26.2335 36.3262 22.9107 36.3262 18.8175V11.8589C36.3262 10.2216 37.6625 8.88525 39.2998 8.88525C40.1786 8.88525 40.9732 9.2705 41.5149 9.88449C42.0567 9.2705 42.8512 8.88525 43.7301 8.88525C44.6089 8.88525 45.4036 9.2705 45.9453 9.88449C46.4871 9.28254 47.2696 8.89729 48.1484 8.88525H48.1725C49.8098 8.88525 51.1341 10.2216 51.1341 11.8589V18.8175C51.1341 22.9107 47.8113 26.2335 43.718 26.2335H43.7421ZM39.2998 11.0282C38.8423 11.0282 38.469 11.4014 38.469 11.8589V18.8175C38.469 21.7189 40.8287 24.0906 43.7421 24.0906C46.6556 24.0906 49.0152 21.7309 49.0152 18.8175V11.8589C49.0152 11.4014 48.6421 11.0282 48.1846 11.0282C47.7271 11.0282 47.3538 11.4014 47.3538 11.8589V16.1569C47.3538 16.7468 46.8722 17.2283 46.2823 17.2283H45.6564C45.0665 17.2283 44.5849 16.7468 44.5849 16.1569V11.8589C44.5849 11.4014 44.2116 11.0282 43.7542 11.0282C43.2967 11.0282 42.9235 11.4014 42.9235 11.8589V16.1569C42.9235 16.7468 42.442 17.2283 41.852 17.2283H41.226C40.6361 17.2283 40.1545 16.7468 40.1545 16.1569V11.8589C40.1545 11.4014 39.7814 11.0282 39.3239 11.0282H39.2998Z" fill="#00BBB4"/>
<path id="Vector_15" d="M36.7951 51.5278C36.7108 51.5278 36.6387 51.4916 36.5785 51.4435C36.5183 51.3953 36.4941 51.311 36.4941 51.2388V43.4616C36.4941 43.3773 36.5183 43.3051 36.5785 43.2449C36.6387 43.1847 36.7108 43.1606 36.7951 43.1606H40.0457C41.0811 43.1606 41.8998 43.4014 42.4897 43.8709C43.0796 44.3404 43.3685 45.0146 43.3685 45.8815C43.3685 46.4473 43.236 46.9289 42.9591 47.3141C42.6822 47.7114 42.3332 48.0003 41.8757 48.1929L43.513 51.1305C43.513 51.1305 43.5491 51.2268 43.5491 51.2629C43.5491 51.3231 43.525 51.3833 43.4768 51.4314C43.4287 51.4796 43.3685 51.5037 43.3083 51.5037H41.7192C41.5627 51.5037 41.4543 51.4675 41.3821 51.3953C41.3098 51.3231 41.2617 51.2509 41.2255 51.1786L39.8651 48.5541H38.6492V51.2027C38.6492 51.287 38.6131 51.3472 38.565 51.4074C38.5048 51.4676 38.4325 51.4916 38.3482 51.4916H36.8072L36.7951 51.5278ZM38.6492 46.8807H40.0216C40.3949 46.8807 40.6717 46.7844 40.8643 46.6038C41.0569 46.4232 41.1413 46.1704 41.1413 45.8574C41.1413 45.5443 41.057 45.2915 40.8764 45.0989C40.6958 44.9063 40.4069 44.81 40.0216 44.81H38.6492V46.8687V46.8807Z" fill="#00BBB4"/>
<path id="Vector_16" d="M44.9338 53.8029C44.8495 53.8029 44.7774 53.7668 44.7172 53.7186C44.657 53.6705 44.6328 53.5862 44.6328 53.514V45.6164C44.6328 45.5321 44.657 45.4599 44.7172 45.3997C44.7774 45.3395 44.8495 45.3154 44.9338 45.3154H46.2822C46.3664 45.3154 46.4267 45.3395 46.4869 45.3997C46.5471 45.4599 46.5711 45.5321 46.5711 45.6164V46.0497C46.7637 45.809 47.0045 45.6043 47.3175 45.4478C47.6305 45.2913 47.9917 45.207 48.4251 45.207C48.8224 45.207 49.1716 45.2672 49.4725 45.3997C49.7735 45.5201 50.0384 45.7006 50.2551 45.9414C50.4718 46.1822 50.6404 46.4711 50.7608 46.8082C50.8812 47.1453 50.9533 47.5426 50.9654 47.988C50.9654 48.1446 50.9774 48.289 50.9774 48.4335C50.9774 48.578 50.9774 48.7224 50.9654 48.8789C50.9533 49.3123 50.8812 49.6976 50.7608 50.0347C50.6404 50.3717 50.4718 50.6727 50.2551 50.9015C50.0384 51.1302 49.7735 51.3229 49.4725 51.4553C49.1716 51.5877 48.8104 51.6599 48.4131 51.6599C48.0158 51.6599 47.6787 51.5877 47.3898 51.4553C47.1009 51.3108 46.8601 51.1182 46.6675 50.8654V53.514C46.6675 53.5982 46.6433 53.6584 46.5831 53.7186C46.5229 53.7788 46.4508 53.8029 46.3665 53.8029H44.9097H44.9338ZM47.7991 50.0347C48.0639 50.0347 48.2807 49.9745 48.4372 49.8661C48.5937 49.7578 48.7021 49.6013 48.7623 49.4086C48.8345 49.216 48.8706 48.9993 48.8826 48.7706C48.8947 48.5178 48.8947 48.277 48.8826 48.0242C48.8706 47.7954 48.8225 47.5787 48.7623 47.3861C48.69 47.1935 48.5817 47.049 48.4372 46.9286C48.2927 46.8082 48.076 46.76 47.7991 46.76C47.5463 46.76 47.3416 46.8203 47.173 46.9286C47.0045 47.037 46.8962 47.1935 46.824 47.374C46.7518 47.5546 46.7036 47.7593 46.6916 47.976C46.6916 48.1205 46.6795 48.277 46.6795 48.4214C46.6795 48.5659 46.6795 48.7104 46.6916 48.8789C46.6916 49.0836 46.7397 49.2642 46.824 49.4327C46.9083 49.6013 47.0286 49.7457 47.1851 49.8541C47.3416 49.9624 47.5463 50.0106 47.7991 50.0106V50.0347Z" fill="#00BBB4"/>
</g>
</svg>
