<svg width="80" height="80" viewBox="0 0 80 80" fill="none" xmlns="http://www.w3.org/2000/svg">
<g id="SVG" clipPath="url(#clip0_2196_13594)">
<g id="Clip path group">
<mask id="mask0_2196_13594" style="mask-type:luminance" maskUnits="userSpaceOnUse" x="0" y="0" width="80" height="80">
<g id="clip0_1710_6917">
<path id="Vector" d="M80 0H0V80H80V0Z" fill="white"/>
</g>
</mask>
<g mask="url(#mask0_2196_13594)">
<g id="Group">
<path id="Vector_2" d="M25.045 69.3539H8.7751C8.12057 69.3539 7.59961 68.8329 7.59961 68.1784V26.355C7.59961 25.941 7.8267 25.5536 8.18736 25.3399L35.3038 9.73793C35.6645 9.52421 36.1186 9.52421 36.4793 9.73793L63.2216 25.233C63.5823 25.4467 63.8093 25.8207 63.8093 26.2348L63.9696 46.7925C63.9696 47.4471 63.4487 47.968 62.8075 47.9814C62.1663 47.9814 61.6454 47.4604 61.632 46.8192L61.4717 26.9295L35.9048 12.1156L9.96397 27.0363V67.0029H23.8828V36.6673C23.8828 36.0128 24.4038 35.4918 25.0583 35.4918H44.347C45.0015 35.4918 45.5225 36.0128 45.5225 36.6673V46.512C45.5225 47.1665 45.0015 47.6875 44.347 47.6875C43.6925 47.6875 43.1715 47.1665 43.1715 46.512V37.8294H26.2338V68.1651C26.2338 68.8196 25.7128 69.3405 25.0583 69.3405L25.045 69.3539Z" fill="#00BBB4"/>
<path id="Vector_3" d="M52.8965 13.4379V6.78564H62.7412V18.9146" fill="#00BBB4"/>
<path id="Vector_4" d="M62.7409 20.0902C62.0864 20.0902 61.5654 19.5692 61.5654 18.9147V7.96132H54.0717V13.438C54.0717 14.0925 53.5507 14.6135 52.8962 14.6135C52.2417 14.6135 51.7207 14.0925 51.7207 13.438V6.78582C51.7207 6.13129 52.2417 5.61035 52.8962 5.61035H62.7409C63.3954 5.61035 63.9164 6.13129 63.9164 6.78582V18.9147C63.9164 19.5692 63.3954 20.0902 62.7409 20.0902Z" fill="#00BBB4"/>
<path id="Vector_5" d="M63.0492 7.96127H52.5901C50.3994 7.96127 48.6094 6.17133 48.6094 3.98065C48.6094 1.78996 50.3994 0 52.5901 0H63.0492C65.2399 0 67.0299 1.78996 67.0299 3.98065C67.0299 6.17133 65.2399 7.96127 63.0492 7.96127ZM52.5901 2.35099C51.6951 2.35099 50.9604 3.08567 50.9604 3.98065C50.9604 4.87562 51.6951 5.6103 52.5901 5.6103H63.0492C63.9442 5.6103 64.6789 4.87562 64.6789 3.98065C64.6789 3.08567 63.9442 2.35099 63.0492 2.35099H52.5901Z" fill="#00BBB4"/>
<path id="Vector_6" d="M72.6662 80.0001H32.2321C31.5775 80.0001 31.0566 79.4792 31.0566 78.8246V52.1491C31.0566 51.4945 31.5775 50.9736 32.2321 50.9736H72.6662C73.3207 50.9736 73.8417 51.4945 73.8417 52.1491V78.8246C73.8417 79.4792 73.3207 80.0001 72.6662 80.0001ZM33.4075 77.6492H71.4907V53.3112H33.4075V77.6492Z" fill="#00BBB4"/>
<path id="Vector_7" d="M78.5044 73.4946H72.667V52.1488H38.0703V46.8057H78.5044V73.4946Z" fill="#00BBB4"/>
<path id="Vector_8" d="M78.5041 74.6566H72.6667C72.0122 74.6566 71.4912 74.1357 71.4912 73.4811V53.3109H38.07C37.4155 53.3109 36.8945 52.7899 36.8945 52.1354V46.7922C36.8945 46.1377 37.4155 45.6167 38.07 45.6167H78.5041C79.1586 45.6167 79.6796 46.1377 79.6796 46.7922V73.4678C79.6796 74.1223 79.1586 74.6433 78.5041 74.6433V74.6566ZM73.8422 72.3057H77.3286V47.9677H39.2454V50.9599H72.6667C73.3213 50.9599 73.8422 51.4808 73.8422 52.1354V72.3057Z" fill="#00BBB4"/>
<path id="Vector_9" d="M35.1051 30.7362C37.4069 30.7362 39.2728 28.8703 39.2728 26.5685C39.2728 24.2668 37.4069 22.4009 35.1051 22.4009C32.8034 22.4009 30.9375 24.2668 30.9375 26.5685C30.9375 28.8703 32.8034 30.7362 35.1051 30.7362Z" fill="#00BBB4"/>
<path id="Vector_10" d="M35.1051 31.4044C32.4335 31.4044 30.2695 29.2404 30.2695 26.5689C30.2695 23.8973 32.4335 21.7334 35.1051 21.7334C37.7766 21.7334 39.9406 23.8973 39.9406 26.5689C39.9406 29.2404 37.7766 31.4044 35.1051 31.4044ZM35.1051 23.0825C33.1815 23.0825 31.6053 24.6454 31.6053 26.5822C31.6053 28.5191 33.1682 30.082 35.1051 30.082C37.0419 30.082 38.6048 28.5191 38.6048 26.5822C38.6048 24.6454 37.0419 23.0825 35.1051 23.0825Z" fill="#00BBB4"/>
<path id="Vector_11" d="M68.4588 30.2957C67.791 30.2957 67.1097 30.1221 66.4952 29.7881H66.4818L36.2531 12.2627L6.41174 29.4408C5.07596 30.2156 3.473 30.2156 2.13722 29.4408C0.788079 28.6661 0 27.2769 0 25.714C0 24.1779 0.841468 22.7619 2.17725 22.0139L35.652 2.0707C36.026 1.84362 36.5069 1.84362 36.8809 2.0707L70.4625 22.7085C71.7315 23.4298 72.5196 24.779 72.5196 26.235C72.5196 27.691 71.7716 28.9867 70.5293 29.7347C69.8881 30.1087 69.1801 30.2957 68.4721 30.2957H68.4588ZM67.6573 27.7043C68.1916 27.9982 68.7927 27.9849 69.3137 27.6776C69.8346 27.3704 70.1419 26.8361 70.1419 26.235C70.1419 25.6339 69.808 25.0595 69.2737 24.7656L69.2335 24.7389L36.2397 4.46176L3.35275 24.0576C2.73829 24.4049 2.36428 25.0328 2.36428 25.714C2.36428 26.4086 2.71161 27.0231 3.31271 27.3704C3.91382 27.7177 4.62176 27.7177 5.2095 27.3704L35.652 9.85831C36.026 9.64459 36.4668 9.64459 36.8408 9.85831L67.6573 27.7177V27.7043Z" fill="#00BBB4"/>
<path id="Vector_12" d="M52.4706 72.6401C48.5301 72.6401 45.3242 69.4342 45.3242 65.4937C45.3242 61.5531 48.5301 58.3472 52.4706 58.3472C56.4112 58.3472 59.617 61.5531 59.617 65.4937C59.617 69.4342 56.4112 72.6401 52.4706 72.6401ZM52.4706 59.683C49.2647 59.683 46.66 62.2878 46.66 65.4937C46.66 68.6996 49.2647 71.3043 52.4706 71.3043C55.6765 71.3043 58.2812 68.6996 58.2812 65.4937C58.2812 62.2878 55.6765 59.683 52.4706 59.683Z" fill="#00BBB4"/>
<path id="Vector_13" d="M41.1828 66.1615H35.5859C35.2118 66.1615 34.918 65.8676 34.918 65.4936C34.918 65.1196 35.2118 64.8257 35.5859 64.8257H41.1828C41.5568 64.8257 41.8507 65.1196 41.8507 65.4936C41.8507 65.8676 41.5568 66.1615 41.1828 66.1615Z" fill="#00BBB4"/>
<path id="Vector_14" d="M42.6782 70.8367H39.7128C39.3388 70.8367 39.0449 70.5429 39.0449 70.1688C39.0449 69.7948 39.3388 69.501 39.7128 69.501H42.6782C43.0522 69.501 43.3461 69.7948 43.3461 70.1688C43.3461 70.5429 43.0522 70.8367 42.6782 70.8367Z" fill="#00BBB4"/>
<path id="Vector_15" d="M42.6782 61.473H39.7128C39.3388 61.473 39.0449 61.1791 39.0449 60.8051C39.0449 60.4311 39.3388 60.1372 39.7128 60.1372H42.6782C43.0522 60.1372 43.3461 60.4311 43.3461 60.8051C43.3461 61.1791 43.0522 61.473 42.6782 61.473Z" fill="#00BBB4"/>
<path id="Vector_16" d="M68.9656 66.1615H63.3554C62.9814 66.1615 62.6875 65.8676 62.6875 65.4936C62.6875 65.1196 62.9814 64.8257 63.3554 64.8257H68.9656C69.3396 64.8257 69.6335 65.1196 69.6335 65.4936C69.6335 65.8676 69.3396 66.1615 68.9656 66.1615Z" fill="#00BBB4"/>
<path id="Vector_17" d="M64.852 70.8367H61.8866C61.5126 70.8367 61.2188 70.5429 61.2188 70.1688C61.2188 69.7948 61.5126 69.501 61.8866 69.501H64.852C65.226 69.501 65.5199 69.7948 65.5199 70.1688C65.5199 70.5429 65.226 70.8367 64.852 70.8367Z" fill="#00BBB4"/>
<path id="Vector_18" d="M64.852 61.4729H61.8866C61.5126 61.4729 61.2188 61.1791 61.2188 60.8051C61.2188 60.431 61.5126 60.1372 61.8866 60.1372H64.852C65.226 60.1372 65.5199 60.431 65.5199 60.8051C65.5199 61.1791 65.226 61.4729 64.852 61.4729Z" fill="#00BBB4"/>
</g>
</g>
</g>
</g>
<defs>
<clipPath id="clip0_2196_13594">
<rect width="80" height="80" fill="white"/>
</clipPath>
</defs>
</svg>
