<svg width="80" height="80" viewBox="0 0 80 80" fill="none" xmlns="http://www.w3.org/2000/svg">
<g id="SVG" clipPath="url(#clip0_2196_13554)">
<path id="Vector" d="M59.8565 50.3473H46.5861C45.9702 50.3473 45.4623 49.8394 45.4623 49.2235V27.7187H33.8562V49.2235C33.8562 49.8394 33.3483 50.3473 32.7323 50.3473H21.0613C20.4454 50.3473 19.9375 49.8394 19.9375 49.2235V19.2032C19.9375 18.8034 20.1536 18.4252 20.4994 18.2306L39.9726 7.04596C40.3184 6.84064 40.7507 6.85144 41.0965 7.04596L60.2887 18.1658C60.6345 18.3711 60.8506 18.7385 60.8506 19.1384L60.9803 49.2235C60.9803 49.5261 60.8614 49.807 60.6561 50.0231C60.44 50.2393 60.159 50.3581 59.8565 50.3581V50.3473ZM47.71 48.0996H58.7326L58.6137 19.7976L40.5453 9.32612L22.196 19.8624V48.0996H31.6084V26.5948C31.6084 25.9788 32.1163 25.4709 32.7323 25.4709H46.5861C47.2021 25.4709 47.71 25.9788 47.71 26.5948V48.0996Z" fill="#00BBB4"/>
<path id="Vector_2" d="M52.7246 9.92042V5.15479H59.792V13.8647" fill="#00BBB4"/>
<path id="Vector_3" d="M59.7928 14.9885C59.1769 14.9885 58.669 14.4806 58.669 13.8646V6.27848H53.8493V9.90944C53.8493 10.5254 53.3414 11.0333 52.7254 11.0333C52.1095 11.0333 51.6016 10.5254 51.6016 9.90944V5.15462C51.6016 4.53866 52.1095 4.03076 52.7254 4.03076H59.7928C60.4088 4.03076 60.9167 4.53866 60.9167 5.15462V13.8646C60.9167 14.4806 60.4088 14.9885 59.7928 14.9885Z" fill="#00BBB4"/>
<path id="Vector_4" d="M60.0195 6.28935H52.4982C50.7583 6.28935 49.3535 4.8737 49.3535 3.14468V3.11226C49.4075 1.39403 50.8124 0 52.4982 0H60.0195C61.7593 0 63.1641 1.41565 63.1641 3.14468C63.1641 4.8737 61.7485 6.28935 60.0195 6.28935ZM51.6012 3.15548C51.6012 3.65257 52.0011 4.04161 52.4982 4.04161H60.0195C60.5274 4.04161 60.9164 3.64177 60.9164 3.14468C60.9164 2.64758 60.5165 2.24774 60.0195 2.24774H52.4982C52.0335 2.24774 51.6229 2.6692 51.6012 3.16629V3.15548Z" fill="#00BBB4"/>
<path id="Vector_5" d="M39.9622 22.3583C41.6154 22.3583 42.9555 21.0181 42.9555 19.3649C42.9555 17.7117 41.6154 16.3716 39.9622 16.3716C38.309 16.3716 36.9688 17.7117 36.9688 19.3649C36.9688 21.0181 38.309 22.3583 39.9622 22.3583Z" fill="#00BBB4"/>
<path id="Vector_6" d="M39.963 22.9963C37.9638 22.9963 36.332 21.3645 36.332 19.3653C36.332 17.3661 37.9638 15.7344 39.963 15.7344C41.9622 15.7344 43.594 17.3661 43.594 19.3653C43.594 21.3645 41.9622 22.9963 39.963 22.9963ZM39.963 17.0203C38.6662 17.0203 37.618 18.0685 37.618 19.3653C37.618 20.6621 38.6662 21.7103 39.963 21.7103C41.2598 21.7103 42.308 20.6621 42.308 19.3653C42.308 18.0685 41.2598 17.0203 39.963 17.0203Z" fill="#00BBB4"/>
<path id="Vector_7" d="M63.3797 22.0559C62.861 22.0559 62.3315 21.9262 61.856 21.6669H61.8344L40.5458 9.31512L19.5165 21.3967C18.4466 22.0019 17.1931 21.9911 16.1449 21.3643C15.1182 20.7591 14.5239 19.6893 14.5455 18.5006C14.5455 17.3227 15.1939 16.2312 16.2313 15.6477L39.9622 1.48046C40.3188 1.26433 40.7727 1.26433 41.1293 1.48046L64.9575 16.1232C65.9517 16.6851 66.5784 17.7333 66.5784 18.8572C66.5568 20.0135 65.9517 21.0401 64.9791 21.602C64.482 21.8938 63.9309 22.0343 63.3797 22.0343V22.0559ZM62.9475 19.7001C63.3581 19.9162 63.7147 19.7541 63.8444 19.6785C63.9849 19.592 64.3091 19.3543 64.3199 18.8572C64.3199 18.5546 64.1362 18.2628 63.8444 18.1007L63.8012 18.0683L40.535 3.77141L17.366 17.5928L17.3336 17.6144C16.9986 17.7982 16.7932 18.144 16.7932 18.5222C16.7932 19.0733 17.139 19.3327 17.2903 19.4299C17.6361 19.6353 18.0468 19.6353 18.3926 19.4299L39.9838 7.02414C40.3296 6.81882 40.7619 6.82963 41.1077 7.02414L62.9475 19.6785V19.7001Z" fill="#00BBB4"/>
<path id="Vector_8" d="M37.2931 61.6292C36.9689 61.6292 36.6555 61.4887 36.4285 61.2294C36.0287 60.7539 36.0935 60.0407 36.569 59.6408C36.6663 59.5544 39.0437 57.566 42.0803 55.9342C46.4029 53.6108 49.8393 53.1786 52.2924 54.6482C52.8219 54.9724 52.9948 55.6533 52.6814 56.1936C52.3572 56.7231 51.6764 56.896 51.1361 56.5826C47.5592 54.4429 40.4485 59.3058 38.0063 61.3591C37.7902 61.532 37.5416 61.6184 37.2822 61.6184L37.2931 61.6292Z" fill="#00BBB4"/>
<path id="Vector_9" d="M42.6968 64.709C42.405 64.709 42.1132 64.6009 41.8971 64.374C41.4648 63.9309 41.4648 63.2177 41.9079 62.7854C42.7508 61.9641 50.2072 54.6914 53.9787 53.8161C58.204 52.8219 60.657 55.9558 60.7543 56.0963C61.1325 56.5934 61.0353 57.2958 60.5382 57.674C60.0411 58.0522 59.3387 57.955 58.9604 57.4579C58.8956 57.3822 57.2746 55.3506 54.4866 56.0098C51.8174 56.6366 45.6361 62.2775 43.4856 64.3956C43.2695 64.6117 42.9777 64.7198 42.6968 64.7198V64.709Z" fill="#00BBB4"/>
<path id="Vector_10" d="M49.5795 65.6815C49.2445 65.6815 48.9203 65.5302 48.6934 65.2492C48.3044 64.7629 48.3908 64.0497 48.8771 63.6715C49.8281 62.915 58.2679 56.2583 60.159 55.4478C61.445 54.8967 62.7742 54.8642 63.898 55.3613C64.9246 55.8152 65.6703 56.6473 66.0701 57.782C66.2755 58.3656 65.9621 59.0139 65.3785 59.2192C64.795 59.4246 64.1466 59.1112 63.9413 58.5277C63.7576 57.9873 63.4334 57.6199 62.9903 57.4254C62.45 57.1876 61.7475 57.2201 61.0451 57.5226C59.8348 58.0413 53.794 62.6557 50.2711 65.4329C50.0658 65.595 49.8173 65.6707 49.5687 65.6707L49.5795 65.6815Z" fill="#00BBB4"/>
<path id="Vector_11" d="M64.2655 68.2101C63.9629 68.2101 63.6603 68.0912 63.4334 67.8426C63.0119 67.3888 63.0444 66.6755 63.4982 66.2541L69.2905 60.9481C69.2472 60.5267 68.9987 59.7054 68.48 59.2839C68.2747 59.111 67.9721 58.9489 67.3993 59.1435C65.4001 59.8459 60.5373 64.1468 58.8298 65.7462C58.376 66.1676 57.6628 66.146 57.2413 65.6921C56.8199 65.2383 56.8415 64.525 57.2953 64.1036C57.9545 63.4768 63.844 57.998 66.6645 57.0146C68.0153 56.5391 69.2905 56.8309 70.2414 57.8359C71.2788 58.9165 71.8408 60.8509 71.4193 61.8991C71.3545 62.0612 71.2572 62.2017 71.1384 62.3098L65.0327 67.8967C64.8166 68.0912 64.5465 68.1884 64.2763 68.1884L64.2655 68.2101Z" fill="#00BBB4"/>
<path id="Vector_12" d="M37.3681 80.0002C37.0331 80.0002 36.7089 79.9786 36.4063 79.9354C30.8626 79.1789 17.614 71.8198 17.052 71.5172C16.6954 71.3227 16.4793 70.9444 16.4793 70.5446L16.3496 57.3067C16.3496 56.9069 16.5549 56.5395 16.8899 56.3341C17.1169 56.1936 22.6065 52.9409 29.6739 55.4264C33.0347 56.6151 35.3041 58.2577 37.3141 59.7058C39.3781 61.2079 41.172 62.4938 43.7223 63.0017C45.5053 63.3475 48.0989 63.4016 50.8545 63.4556C56.4847 63.5745 62.3093 63.6933 64.6219 66.2761C65.6053 67.3675 65.8214 68.6535 65.2271 69.7881C63.9735 72.1656 59.4132 73.5272 53.0158 73.6569C51.276 74.7591 42.7713 80.0002 37.3789 80.0002H37.3681ZM18.7162 69.8638C21.3314 71.2902 32.1918 77.0933 36.7089 77.7093C39.6915 78.1199 44.9974 75.6668 48.7473 73.5704C47.1263 73.4731 45.4297 73.3218 43.6683 73.0949C43.0523 73.0193 42.62 72.4465 42.6957 71.8306C42.7713 71.2146 43.3441 70.7823 43.96 70.858C47.2128 71.2794 50.0765 71.4415 52.5403 71.4091C52.6268 71.4091 52.7024 71.3983 52.7889 71.4091C58.9702 71.2902 62.5687 69.9827 63.2171 68.7507C63.2819 68.6211 63.4332 68.3401 62.9361 67.789C61.2719 65.9302 55.4581 65.8114 50.8005 65.7141C47.9476 65.6601 45.2568 65.606 43.2792 65.217C40.2426 64.6227 38.1786 63.1206 35.9849 61.5428C34.0073 60.1164 31.9757 58.6359 28.9175 57.5553C24.0654 55.8478 20.0238 57.3175 18.5973 57.9767L18.7162 69.8638Z" fill="#00BBB4"/>
<path id="Vector_13" d="M17.4635 74.2942H8.62388C8.00791 74.2942 7.5 73.7863 7.5 73.1704V54.7562C7.5 54.1402 8.00791 53.6323 8.62388 53.6323H17.4635C18.0795 53.6323 18.5874 54.1402 18.5874 54.7562V73.1704C18.5874 73.7863 18.0795 74.2942 17.4635 74.2942ZM9.74772 72.0465H16.3397V55.8801H9.74772V72.0465Z" fill="#00BBB4"/>
</g>
<defs>
<clipPath id="clip0_2196_13554">
<rect width="80" height="80" fill="white"/>
</clipPath>
</defs>
</svg>
