<svg width="80" height="80" viewBox="0 0 80 80" fill="none" xmlns="http://www.w3.org/2000/svg">
<g id="SVG" clipPath="url(#clip0_2196_13572)">
<path id="Vector" d="M61.1072 80H7.41165C6.76354 80 6.25 79.4742 6.25 78.8383V43.4122C6.25 42.7641 6.77577 42.2505 7.41165 42.2505H61.1072C61.7553 42.2505 62.2689 42.7763 62.2689 43.4122V78.8383C62.2689 79.4864 61.7431 80 61.1072 80ZM8.57338 77.6643H59.9455V44.5617H8.57338V77.6643Z" fill="#00BBB4"/>
<path id="Vector_2" d="M72.1369 68.2727H61.1068V43.3999H18.4414V32.8467H72.1369V68.2727Z" fill="#00BBB4"/>
<path id="Vector_3" d="M72.1365 69.4469H61.1064C60.4583 69.4469 59.9447 68.921 59.9447 68.2852V44.574H18.441C17.7929 44.574 17.2793 44.0482 17.2793 43.4123V32.8591C17.2793 32.211 17.8051 31.6973 18.441 31.6973H72.1365C72.7846 31.6973 73.2982 32.2232 73.2982 32.8591V68.2974C73.2982 68.9455 72.7724 69.4591 72.1365 69.4591V69.4469ZM62.2681 67.1112H70.9749V34.0086H19.6027V42.2261H61.1064C61.7545 42.2261 62.2681 42.7519 62.2681 43.3878V67.099V67.1112Z" fill="#00BBB4"/>
<path id="Vector_4" d="M34.2771 70.3759C29.1655 70.3759 25.0078 66.2182 25.0078 61.1067C25.0078 55.9951 29.1655 51.8374 34.2771 51.8374C39.3886 51.8374 43.5463 55.9951 43.5463 61.1067C43.5463 66.2182 39.3886 70.3759 34.2771 70.3759ZM34.2771 53.1703C29.8993 53.1703 26.3408 56.7288 26.3408 61.1067C26.3408 65.4845 29.8993 69.043 34.2771 69.043C38.6549 69.043 42.2134 65.4845 42.2134 61.1067C42.2134 56.7288 38.6549 53.1703 34.2771 53.1703Z" fill="#00BBB4"/>
<path id="Vector_5" d="M19.297 61.7792H11.8498C11.4829 61.7792 11.1895 61.4857 11.1895 61.1189C11.1895 60.752 11.4829 60.4585 11.8498 60.4585H19.297C19.6638 60.4585 19.9573 60.752 19.9573 61.1189C19.9573 61.4857 19.6638 61.7792 19.297 61.7792Z" fill="#00BBB4"/>
<path id="Vector_6" d="M21.2659 67.9916H17.3284C16.9615 67.9916 16.668 67.6981 16.668 67.3312C16.668 66.9644 16.9615 66.6709 17.3284 66.6709H21.2659C21.6328 66.6709 21.9262 66.9644 21.9262 67.3312C21.9262 67.6981 21.6328 67.9916 21.2659 67.9916Z" fill="#00BBB4"/>
<path id="Vector_7" d="M21.2659 55.5673H17.3284C16.9615 55.5673 16.668 55.2738 16.668 54.9069C16.668 54.5401 16.9615 54.2466 17.3284 54.2466H21.2659C21.6328 54.2466 21.9262 54.5401 21.9262 54.9069C21.9262 55.2738 21.6328 55.5673 21.2659 55.5673Z" fill="#00BBB4"/>
<path id="Vector_8" d="M56.2032 61.7792H48.756C48.3892 61.7792 48.0957 61.4857 48.0957 61.1189C48.0957 60.752 48.3892 60.4585 48.756 60.4585H56.2032C56.5701 60.4585 56.8635 60.752 56.8635 61.1189C56.8635 61.4857 56.5701 61.7792 56.2032 61.7792Z" fill="#00BBB4"/>
<path id="Vector_9" d="M50.7249 67.9916H46.7873C46.4204 67.9916 46.127 67.6981 46.127 67.3312C46.127 66.9644 46.4204 66.6709 46.7873 66.6709H50.7249C51.0918 66.6709 51.3852 66.9644 51.3852 67.3312C51.3852 67.6981 51.0918 67.9916 50.7249 67.9916Z" fill="#00BBB4"/>
<path id="Vector_10" d="M50.7249 55.5673H46.7873C46.4204 55.5673 46.127 55.2738 46.127 54.9069C46.127 54.5401 46.4204 54.2466 46.7873 54.2466H50.7249C51.0918 54.2466 51.3852 54.5401 51.3852 54.9069C51.3852 55.2738 51.0918 55.5673 50.7249 55.5673Z" fill="#00BBB4"/>
<path id="Vector_11" d="M71.33 38.1659H17.8791C17.5122 38.1659 17.2188 37.8724 17.2188 37.5055C17.2188 37.1387 17.5122 36.8452 17.8791 36.8452H71.33C71.6969 36.8452 71.9904 37.1387 71.9904 37.5055C71.9904 37.8724 71.6969 38.1659 71.33 38.1659Z" fill="#00BBB4"/>
<path id="Vector_12" d="M71.3307 47.9485H61.1077C60.7408 47.9485 60.4473 47.655 60.4473 47.2882C60.4473 46.9213 60.7408 46.6279 61.1077 46.6279H71.3307C71.6976 46.6279 71.991 46.9213 71.991 47.2882C71.991 47.655 71.6976 47.9485 71.3307 47.9485Z" fill="#00BBB4"/>
<path id="Vector_13" d="M34.0461 23.2106C33.5814 23.2106 33.1167 23.0639 32.7009 22.7949C31.955 22.2813 31.5759 21.4008 31.7104 20.5081L32.5175 15.0664C32.5175 15.0664 32.5175 15.042 32.5053 15.042L28.4944 11.3001C27.834 10.6886 27.5894 9.75927 27.8462 8.90327C28.103 8.03505 28.8245 7.41138 29.7172 7.25241L35.1345 6.34749L37.4823 1.35825C37.8614 0.538933 38.6685 0.0131047 39.5734 0.00087611C40.4661 -0.023581 41.2977 0.465571 41.7134 1.27266L44.2569 6.13961C44.3303 6.13961 44.3915 6.16408 44.4648 6.18853L49.7353 6.83665C50.628 6.9467 51.3739 7.5459 51.6796 8.4019C51.9731 9.2579 51.7652 10.1873 51.1293 10.8354L47.2774 14.7485L48.3168 20.1658C48.488 21.0462 48.1456 21.9389 47.4364 22.4892C46.7149 23.0394 45.761 23.1251 44.9539 22.7215L40.038 20.2758L35.2078 22.9416C34.8532 23.1373 34.4497 23.2351 34.0583 23.2351L34.0461 23.2106ZM39.6101 2.31207L37.2745 7.30132C36.9443 8.01057 36.284 8.51196 35.5258 8.63424L30.1085 9.53914C30.1085 9.53914 30.0841 9.5636 30.0841 9.57583L34.1072 13.33C34.6697 13.8681 34.9388 14.6385 34.8287 15.3966L34.0216 20.8383L34.0461 20.875L38.8642 18.2092C39.5489 17.8301 40.3682 17.8179 41.0653 18.1603L45.9812 20.606C45.9812 20.606 46.0178 20.606 46.0178 20.5938L44.9662 15.1887C44.8194 14.4183 45.0518 13.6357 45.6021 13.0854L49.454 9.17228V9.1356L43.9879 8.46304C43.9879 8.46304 43.8778 8.4508 43.8167 8.42634C43.1074 8.29183 42.5082 7.83938 42.178 7.19126L39.6468 2.32431L39.6223 2.31207H39.6101Z" fill="#00BBB4"/>
<path id="Vector_14" d="M65.2637 16.7786L69.0423 17.2433C69.7271 17.3289 70.0084 18.1482 69.5315 18.6374L66.8656 21.3521C66.6699 21.5478 66.5966 21.8168 66.6455 22.0858L67.367 25.8278C67.5015 26.5003 66.8045 27.0262 66.193 26.7205L62.7813 25.0207C62.5367 24.8984 62.2555 24.8984 62.0109 25.0329L58.6847 26.8794C58.0855 27.2096 57.364 26.7082 57.4618 26.0356L58.0244 22.2693C58.0611 22.0002 57.9754 21.7312 57.7676 21.5478L54.9795 18.9553C54.4781 18.4906 54.7349 17.6469 55.4075 17.5368L59.1616 16.9132C59.4307 16.8642 59.663 16.6931 59.7731 16.4485L61.3872 13C61.6807 12.3764 62.549 12.3641 62.8669 12.9633L64.6278 16.3384C64.7501 16.583 64.9946 16.742 65.2637 16.7786Z" fill="#00BBB4"/>
<path id="Vector_15" d="M58.2819 28.1632C57.8905 28.1632 57.487 28.0409 57.1446 27.8085C56.521 27.3683 56.1908 26.6346 56.3008 25.8764L56.8389 22.2812L54.1853 19.8111C53.6227 19.2852 53.4149 18.5148 53.635 17.7811C53.8551 17.0474 54.4543 16.5216 55.2125 16.3871L58.7954 15.7879L60.324 12.4984C60.6419 11.8014 61.3268 11.3612 62.0849 11.3489C62.8431 11.3367 63.5401 11.7402 63.8947 12.4128L65.57 15.6411L69.1775 16.0814C69.9356 16.1792 70.5593 16.6806 70.8161 17.4021C71.0729 18.1235 70.8895 18.9062 70.3637 19.4564L67.8201 22.0489L68.5171 25.6074C68.6639 26.3534 68.3704 27.1115 67.7712 27.5762C67.1598 28.0409 66.3649 28.1142 65.6801 27.7719L62.4395 26.1577L59.2601 27.9186C58.9544 28.0898 58.6243 28.1754 58.2941 28.1754L58.2819 28.1632ZM56.2886 18.576L58.5753 20.7038C59.0522 21.1562 59.2846 21.8043 59.1868 22.4524L58.7221 25.5462L61.449 24.0299C62.0238 23.712 62.7086 23.6998 63.2955 23.9932L66.0959 25.3873L65.4967 22.3301C65.3744 21.682 65.57 21.0217 66.0347 20.557L68.2237 18.3314L65.1298 17.9523C65.1298 17.9523 65.032 17.9401 64.9953 17.9279C64.4084 17.8178 63.8947 17.4387 63.6135 16.9007L62.1705 14.1248L60.8498 16.9496C60.5686 17.5488 60.0183 17.9646 59.3824 18.0746L56.3008 18.5882L56.2886 18.576Z" fill="#00BBB4"/>
<path id="Vector_16" d="M20.3125 16.7786L24.0911 17.2433C24.7759 17.3289 25.0572 18.1482 24.5803 18.6374L21.9145 21.3521C21.7188 21.5478 21.6454 21.8168 21.6943 22.0858L22.4158 25.8278C22.5503 26.5003 21.8533 27.0262 21.2418 26.7205L17.8301 25.0207C17.5855 24.8984 17.3043 24.8984 17.0597 25.0329L13.7336 26.8794C13.1344 27.2096 12.4129 26.7082 12.5107 26.0356L13.0732 22.2693C13.1099 22.0002 13.0243 21.7312 12.8164 21.5478L10.0283 18.9553C9.52692 18.4906 9.78376 17.6469 10.4563 17.5368L14.2104 16.9132C14.4795 16.8642 14.7118 16.6931 14.8219 16.4485L16.436 13C16.7295 12.3764 17.5978 12.3641 17.9157 12.9633L19.6766 16.3384C19.7989 16.583 20.0435 16.742 20.3125 16.7786Z" fill="#00BBB4"/>
<path id="Vector_17" d="M13.3302 28.1632C12.9389 28.1632 12.5353 28.0409 12.2052 27.8085C11.5815 27.3683 11.2513 26.6346 11.3614 25.8764L11.8994 22.2812L9.2458 19.8111C8.68329 19.2852 8.47546 18.5148 8.69558 17.7811C8.91569 17.0474 9.51486 16.5216 10.273 16.3871L13.856 15.7879L15.3846 12.4984C15.7147 11.8014 16.3873 11.3612 17.1455 11.3489C17.9036 11.3367 18.6006 11.7402 18.9553 12.4128L20.6306 15.6411L24.2258 16.0814C24.9839 16.1792 25.6076 16.6806 25.8644 17.4021C26.1212 18.1235 25.9378 18.9062 25.412 19.4564L22.8684 22.0489L23.5655 25.6074C23.7122 26.3534 23.4187 27.1115 22.8195 27.5762C22.2081 28.0409 21.4132 28.1142 20.7284 27.7719L17.4879 26.1577L14.3084 27.9186C14.0027 28.0898 13.6726 28.1754 13.3424 28.1754L13.3302 28.1632ZM11.3369 18.5638L13.6236 20.6915C14.1006 21.144 14.3329 21.7921 14.2351 22.4402L13.7704 25.534L16.4973 24.0177C17.0721 23.6997 17.7569 23.6875 18.3438 23.981L21.1442 25.3751L20.545 22.3179C20.4228 21.6698 20.6183 21.0095 21.083 20.5448L23.272 18.3192L20.1781 17.9401C20.1781 17.9401 20.0803 17.9279 20.0436 17.9156C19.4567 17.8056 18.9431 17.4265 18.6618 16.8885L17.2188 14.1126L15.8981 16.9374C15.6169 17.5366 15.0667 17.9523 14.4308 18.0624L11.3491 18.576L11.3369 18.5638Z" fill="#00BBB4"/>
</g>
<defs>
<clipPath id="clip0_2196_13572">
<rect width="80" height="80" fill="white"/>
</clipPath>
</defs>
</svg>
