<svg width="24" height="24" viewBox="0 0 24 24" fill="none" xmlns="http://www.w3.org/2000/svg">
<g id="SVG">
<path id="Vector" fillRule="evenodd" clipRule="evenodd" d="M17.9125 5.31143C18.5768 4.76116 19 3.93 19 3C19 1.34315 17.6569 0 16 0C14.3431 0 13 1.34315 13 3C13 3.9296 13.4228 4.76044 14.0866 5.31072C11.8475 6.06229 10.2 8.09794 10.0157 10.5422L8.60775 9.46466C8.24908 9.19016 7.75092 9.19016 7.39225 9.46466L1.39225 14.0565C1.14501 14.2457 1 14.5393 1 14.8506V22.9995C1 23.5518 1.44772 23.9995 2 23.9995H5.96958C5.97968 23.9998 5.98982 24 6 24H10C10.0102 24 10.0203 23.9998 10.0304 23.9995H12.9681C12.9782 23.9998 12.9883 24 12.9985 24H18.9985C19.5508 24 19.9985 23.5523 19.9985 23V16.1H20.9985C21.5508 16.1 21.9985 15.6523 21.9985 15.1V11C21.9985 8.35534 20.2889 6.11008 17.9125 5.31143ZM17.8 3C17.8 3.99411 16.9941 4.8 16 4.8C15.0059 4.8 14.2 3.99411 14.2 3C14.2 2.00589 15.0059 1.2 16 1.2C16.9941 1.2 17.8 2.00589 17.8 3ZM2.2 22.7995H5V17C5 16.4477 5.44772 16 6 16H10C10.5523 16 11 16.4477 11 17V22.7995H13.8V14.9494L8 10.5106L2.2 14.9494V22.7995ZM6.2 17.2V22.7995H9.8V17.2H6.2ZM11.1985 11.4474V11C11.1985 8.34888 13.3452 6.2 15.9985 6.2C18.6518 6.2 20.7985 8.34888 20.7985 11V14.9H19.9985C19.3358 14.9 18.7985 15.4373 18.7985 16.1V22.8H15V14.8506C15 14.5393 14.855 14.2457 14.6077 14.0565L11.1985 11.4474Z" fill="#646464"/>
</g>
</svg>
