<svg width="24" height="24" viewBox="0 0 24 24" fill="none" xmlns="http://www.w3.org/2000/svg">
<g id="SVG">
<path id="Vector" fillRule="evenodd" clipRule="evenodd" d="M19.6375 16.4317C19.7741 16.962 19.6348 17.5486 19.2195 17.9638L18.0063 19.177C17.467 19.7163 16.622 19.8 15.9875 19.3769L15.5024 19.0535L14.8899 19.4619C14.3525 19.8201 13.6523 19.8201 13.1149 19.4619L12.5024 19.0535L12.0173 19.3769C11.3827 19.8 10.5377 19.7163 9.99844 19.177L6.87102 16.0496C6.796 15.9746 6.69426 15.9324 6.58818 15.9324H4.24502C4.19467 16.4376 3.7684 16.832 3.25 16.832H1.25C0.697715 16.832 0.25 16.3843 0.25 15.832V7.83203C0.25 7.27975 0.697715 6.83203 1.25 6.83203H3.25C3.63012 6.83203 3.9607 7.04412 4.12987 7.35641L5.40655 6.07973C6.26922 5.21706 7.43925 4.73242 8.65924 4.73242H13.3601C14.3213 4.29549 15.4891 4.47612 16.2745 5.26153L18.6275 7.61457C18.7026 7.68959 18.8043 7.73173 18.9104 7.73173H19.755C19.8053 7.22654 20.2316 6.83203 20.75 6.83203H22.75C23.3023 6.83203 23.75 7.27975 23.75 7.83203V15.832C23.75 16.3843 23.3023 16.832 22.75 16.832H20.75C20.4227 16.832 20.1321 16.6748 19.9497 16.4317H19.6375ZM11.862 5.93242H8.65924C7.75751 5.93242 6.8927 6.29063 6.25508 6.92826L4.25 8.93334V14.7324H6.58818C7.01252 14.7324 7.41949 14.901 7.71955 15.2011L10.847 18.3285C10.9818 18.4633 11.193 18.4842 11.3517 18.3784L12.5024 17.6113L13.7805 18.4634C13.9149 18.553 14.0899 18.553 14.2243 18.4634L15.5024 17.6113L16.6531 18.3784C16.8117 18.4842 17.023 18.4633 17.1578 18.3285L18.371 17.1153C18.5272 16.9591 18.5272 16.7058 18.371 16.5496L17.8608 16.0394C17.8328 16.015 17.8055 15.9896 17.779 15.9631L12.9962 11.1803L12.418 11.7584C11.3755 12.8009 9.63992 12.629 8.82213 11.4023C8.18313 10.4438 8.33817 9.16262 9.18735 8.3842L11.862 5.93242ZM19.75 8.93173V15.2317H18.9104C18.8043 15.2317 18.7026 15.1896 18.6275 15.1146L12.9962 9.4832L11.5695 10.9099C11.0625 11.4169 10.2183 11.3333 9.82059 10.7367C9.50981 10.2705 9.58521 9.64738 9.99822 9.26879L13.49 6.06799C14.0425 5.5615 14.896 5.58004 15.426 6.11005L17.779 8.4631C18.0791 8.76316 18.486 8.93173 18.9104 8.93173H19.75ZM1.45 15.632V8.03203H3.05V15.632H1.45ZM20.95 15.632V8.03203H22.55V15.632H20.95Z" fill="#646464"/>
</g>
</svg>
