<svg width="24" height="24" viewBox="0 0 24 24" fill="none" xmlns="http://www.w3.org/2000/svg">
<g id="SVG">
<path id="Vector" d="M12.0004 11.8999C12.3318 11.8999 12.6004 12.1685 12.6004 12.4999V12.9999C12.6004 13.3313 12.3318 13.5999 12.0004 13.5999C11.6691 13.5999 11.4004 13.3313 11.4004 12.9999V12.4999C11.4004 12.1685 11.6691 11.8999 12.0004 11.8999Z" fill="#646464"/>
<path id="Vector_2" fillRule="evenodd" clipRule="evenodd" d="M9.00039 9.3999C8.11673 9.3999 7.40039 10.1162 7.40039 10.9999V14.9999C7.40039 15.8836 8.11673 16.5999 9.00039 16.5999H15.0004C15.884 16.5999 16.6004 15.8836 16.6004 14.9999V10.9999C16.6004 10.1162 15.884 9.3999 15.0004 9.3999H14.6004V7.9999C14.6004 6.56396 13.4363 5.3999 12.0004 5.3999C10.5644 5.3999 9.40039 6.56396 9.40039 7.9999V9.3999H9.00039ZM10.6004 9.3999H13.4004V7.9999C13.4004 7.2267 12.7736 6.5999 12.0004 6.5999C11.2272 6.5999 10.6004 7.2267 10.6004 7.9999V9.3999ZM8.60039 10.9999C8.60039 10.779 8.77947 10.5999 9.00039 10.5999H15.0004C15.2213 10.5999 15.4004 10.779 15.4004 10.9999V14.9999C15.4004 15.2208 15.2213 15.3999 15.0004 15.3999H9.00039C8.77947 15.3999 8.60039 15.2208 8.60039 14.9999V10.9999Z" fill="#646464"/>
<path id="Vector_3" fillRule="evenodd" clipRule="evenodd" d="M12.8063 0.525571C12.3081 0.234967 11.6921 0.234965 11.1939 0.525571L3.20201 5.1875C2.7035 5.47829 2.40023 6.01502 2.40836 6.59208L2.45734 10.0681C2.54009 15.9416 6.0232 21.2334 11.3852 23.6321C11.7764 23.8072 12.2237 23.8072 12.615 23.6321C17.977 21.2334 21.4601 15.9416 21.5428 10.0681L21.5918 6.59209C21.5999 6.01502 21.2967 5.47829 20.7981 5.1875L12.8063 0.525571ZM11.7985 1.56211C11.9231 1.48945 12.0771 1.48945 12.2016 1.56211L20.1935 6.22403C20.3181 6.29673 20.3939 6.43091 20.3919 6.57518L20.3429 10.0512C20.2668 15.4576 17.0606 20.3288 12.1249 22.5368C12.0455 22.5723 11.9547 22.5723 11.8752 22.5368C6.93956 20.3288 3.73339 15.4576 3.65722 10.0512L3.60824 6.57518C3.60621 6.43091 3.68203 6.29673 3.80666 6.22403L11.7985 1.56211Z" fill="#646464"/>
</g>
</svg>
