<svg width="24" height="24" viewBox="0 0 24 24" fill="none" xmlns="http://www.w3.org/2000/svg">
<g id="SVG" clipPath="url(#clip0_10_13665)">
<path id="Vector" fillRule="evenodd" clipRule="evenodd" d="M15.339 3.92936C15.3637 3.86934 15.3987 3.81234 15.4441 3.76094C15.7007 3.47019 15.9841 3.18723 16.2923 2.91726C17.3727 1.97093 18.5845 1.33604 19.6926 1.09538C20.7775 0.859766 21.913 0.980662 22.6164 1.78367C23.3198 2.58668 23.2902 3.72818 22.9138 4.77262C22.5293 5.83942 21.7404 6.9571 20.6601 7.90343C20.5093 8.03545 20.3561 8.16141 20.2009 8.28108L20.51 11.682C20.5799 12.4504 20.3048 13.2102 19.7592 13.7559L10.5221 22.993C9.50673 24.0083 7.8605 24.0083 6.84513 22.993L1.18828 17.3361C0.172917 16.3208 0.172917 14.6745 1.18828 13.6592L10.4254 4.42205C10.971 3.87642 11.7308 3.60134 12.4993 3.6712L15.339 3.92936ZM16.8166 4.06368C16.9027 3.98139 16.9915 3.90007 17.083 3.81992C18.04 2.98163 19.073 2.45792 19.9473 2.26805C20.8448 2.07313 21.4294 2.24975 21.7137 2.57437C21.9981 2.89899 22.0962 3.50173 21.7848 4.36577C21.503 5.14783 20.9174 6.02777 20.0681 6.82097L20.0386 6.49654C19.925 5.24658 18.9347 4.25624 17.6847 4.14261L16.8166 4.06368ZM18.9434 7.70284L18.8436 6.60518C18.7824 5.93213 18.2491 5.39886 17.5761 5.33768L12.3906 4.86627C11.9768 4.82866 11.5677 4.97678 11.2739 5.27057L2.03681 14.5077C1.49007 15.0544 1.49007 15.9409 2.03681 16.4876L7.69366 22.1444C8.2404 22.6912 9.12683 22.6912 9.67356 22.1444L18.9107 12.9073C19.2045 12.6135 19.3526 12.2044 19.315 11.7906L19.0639 9.02838C18.4567 9.36211 17.8438 9.59846 17.2598 9.7253C17.2262 9.7326 17.1925 9.73955 17.1589 9.74616C17.0588 10.0899 16.8733 10.414 16.6023 10.685C15.7432 11.5441 14.3502 11.5441 13.491 10.685C12.6319 9.8258 12.6319 8.43284 13.491 7.57368C14.3502 6.71453 15.7432 6.71453 16.6023 7.57368C16.8742 7.84559 17.0601 8.17096 17.1599 8.51596C17.7169 8.37308 18.3304 8.10048 18.9434 7.70284ZM15.8917 8.59426C15.853 8.53322 15.807 8.47546 15.7538 8.42221C15.5861 8.25458 15.3738 8.1589 15.1551 8.13518C15.1805 8.17482 15.2084 8.21182 15.2387 8.24632C15.3808 8.40859 15.598 8.53388 15.8917 8.59426ZM14.1224 8.74701C13.9726 9.10938 14.045 9.54191 14.3396 9.83643C14.7301 10.227 15.3633 10.227 15.7538 9.83643C15.7674 9.82285 15.7805 9.80899 15.7931 9.79485C15.2311 9.70973 14.7194 9.47469 14.336 9.03701C14.2555 8.94516 14.1845 8.8482 14.1224 8.74701Z" fill="#646464"/>
</g>
<defs>
<clipPath id="clip0_10_13665">
<rect width="24" height="24" fill="white"/>
</clipPath>
</defs>
</svg>
