<svg width="24" height="24" viewBox="0 0 24 24" fill="none" xmlns="http://www.w3.org/2000/svg">
<g id="SVG">
<path id="Vector" fillRule="evenodd" clipRule="evenodd" d="M5.99844 1.40039C6.32981 1.40039 6.59844 1.66902 6.59844 2.00039V3.40039H16.3984V2.00039C16.3984 1.66902 16.6671 1.40039 16.9984 1.40039C17.3298 1.40039 17.5984 1.66902 17.5984 2.00039V3.40039H18.9984C20.4344 3.40039 21.5984 4.56445 21.5984 6.00039V12.7501L23.0691 14.2208C23.4987 14.6504 23.4987 15.3469 23.0691 15.7764L21.5984 17.2471V19.0004C21.5984 20.4363 20.4344 21.6004 18.9984 21.6004H3.99844C2.5625 21.6004 1.39844 20.4363 1.39844 19.0004V6.00039C1.39844 4.56445 2.5625 3.40039 3.99844 3.40039H5.39844V2.00039C5.39844 1.66902 5.66707 1.40039 5.99844 1.40039ZM20.3984 18.4471L20.2763 18.5693C19.5833 19.2623 18.3984 18.7715 18.3984 17.7915V17.5986H11.9984C11.1148 17.5986 10.3984 16.8823 10.3984 15.9986V13.9986C10.3984 13.115 11.1148 12.3986 11.9984 12.3986H18.3984V12.2057C18.3984 11.2257 19.5833 10.7349 20.2763 11.4279L20.3984 11.5501V9.60039H2.59844V19.0004C2.59844 19.7736 3.22524 20.4004 3.99844 20.4004H18.9984C19.7716 20.4004 20.3984 19.7736 20.3984 19.0004V18.4471ZM5.39844 5.50039V4.60039H3.99844C3.22524 4.60039 2.59844 5.22719 2.59844 6.00039V8.40039H20.3984V6.00039C20.3984 5.22719 19.7716 4.60039 18.9984 4.60039H17.5984V5.50039C17.5984 5.83176 17.3298 6.10039 16.9984 6.10039C16.6671 6.10039 16.3984 5.83176 16.3984 5.50039V4.60039H6.59844V5.50039C6.59844 5.83176 6.32981 6.10039 5.99844 6.10039C5.66707 6.10039 5.39844 5.83176 5.39844 5.50039ZM19.5984 12.9986V12.4471L22.1499 14.9986L19.5984 17.5501V16.9986C19.5984 16.6672 19.3298 16.3986 18.9984 16.3986H11.9984C11.7775 16.3986 11.5984 16.2195 11.5984 15.9986V13.9986C11.5984 13.7777 11.7775 13.5986 11.9984 13.5986H18.9984C19.3298 13.5986 19.5984 13.33 19.5984 12.9986Z" fill="#646464"/>
</g>
</svg>
