<svg width="24" height="24" viewBox="0 0 24 24" fill="none" xmlns="http://www.w3.org/2000/svg">
<g id="SVG">
<path id="Vector" fillRule="evenodd" clipRule="evenodd" d="M7.00039 1.44043C7.23242 1.44043 7.43398 1.57227 7.53359 1.76562C7.57636 1.84824 7.60039 1.94141 7.60039 2.04043V3.44023H17.4002V2.04043C17.4002 1.70879 17.6686 1.44043 18.0002 1.44043C18.3318 1.44043 18.6002 1.70879 18.6002 2.04043V3.44023H20C21.4361 3.44023 22.6004 4.60449 22.6004 6.04063V19.0402C22.6004 20.4764 21.4361 21.6406 20 21.6406H5C3.56445 21.6406 2.4002 20.4764 2.4002 19.0402V17.4852C1.70996 17.3076 1.2002 16.6807 1.2002 15.9354V13.9355C1.2002 13.1902 1.70996 12.5633 2.4002 12.3857V6.04063C2.4002 4.60449 3.56445 3.44023 5 3.44023H6.40039V2.04043C6.40039 1.96133 6.41562 1.88574 6.44316 1.8166C6.53164 1.59629 6.74785 1.44043 7.00039 1.44043ZM3.6002 12.3354H9.2V12.1426C9.2 11.1828 10.3367 10.6924 11.0346 11.3234L12.4004 12.6828L13.8711 14.1576C14.099 14.3855 14.2062 14.6896 14.1922 14.9885C14.1793 15.2521 14.0727 15.5117 13.8711 15.7133L11.0779 18.5064C10.3848 19.199 9.2 18.7086 9.2 17.7283V17.5355H3.6002V19.0402C3.6002 19.1082 3.60488 19.175 3.61426 19.24C3.62422 19.3098 3.63887 19.3777 3.65879 19.4434C3.71973 19.6455 3.8252 19.8283 3.96348 19.9807C4.21953 20.2631 4.58926 20.4406 5 20.4406H20C20.7734 20.4406 21.4004 19.8137 21.4004 19.0402V9.64062H3.6002V12.3354ZM6.40039 5.54023V4.64023H5C4.22715 4.64023 3.6002 5.26719 3.6002 6.04063V8.44063H21.4004V6.04063C21.4004 5.46875 21.0576 4.97715 20.5666 4.75977C20.3932 4.68301 20.2016 4.64023 20 4.64023H18.6002V5.54023C18.6002 5.69902 18.5387 5.84316 18.4385 5.95039C18.3682 6.02539 18.2785 6.08223 18.1771 6.11328C18.1215 6.13086 18.0617 6.14023 18.0002 6.14023C17.6686 6.14023 17.4002 5.87188 17.4002 5.54023V4.64023H7.60039V5.54023C7.60039 5.87188 7.33144 6.14023 7.00039 6.14023C6.66875 6.14023 6.40039 5.87188 6.40039 5.54023ZM10.4 12.9354V12.384L12.9518 14.9357L10.4 17.4869V16.9355C10.4 16.6039 10.1316 16.3355 9.8 16.3355H2.80039C2.68203 16.3355 2.57598 16.284 2.50273 16.2025C2.43887 16.1316 2.4002 16.0379 2.4002 15.9354V13.9355C2.4002 13.7146 2.57949 13.5354 2.80039 13.5354H9.8C10.1316 13.5354 10.4 13.267 10.4 12.9354Z" fill="#646464"/>
</g>
</svg>
