<svg width="24" height="24" viewBox="0 0 24 24" fill="none" xmlns="http://www.w3.org/2000/svg">
<g id="SVG">
<path id="Vector" d="M7.8401 7.18765C7.60579 7.42197 7.22589 7.42197 6.99157 7.18765L6.0002 6.19628L5.00864 7.18785C4.77432 7.42216 4.39443 7.42216 4.16011 7.18785C3.9258 6.95354 3.9258 6.57364 4.16011 6.33932L5.15168 5.34776L4.16315 4.35923C3.92883 4.12491 3.92883 3.74501 4.16315 3.5107C4.39746 3.27638 4.77736 3.27638 5.01167 3.5107L6.0002 4.49923L6.98854 3.51089C7.22285 3.27658 7.60275 3.27658 7.83707 3.51089C8.07138 3.74521 8.07138 4.12511 7.83707 4.35942L6.84873 5.34776L7.8401 6.33912C8.07441 6.57344 8.07441 6.95334 7.8401 7.18765Z" fill="#646464"/>
<path id="Vector_2" d="M8.24844 11.5C7.91707 11.5 7.64844 11.7686 7.64844 12.1C7.64844 12.4314 7.91707 12.7 8.24844 12.7H15.7484C16.0798 12.7 16.3484 12.4314 16.3484 12.1C16.3484 11.7686 16.0798 11.5 15.7484 11.5H8.24844Z" fill="#646464"/>
<path id="Vector_3" d="M7.64844 15.225C7.64844 14.8936 7.91707 14.625 8.24844 14.625H13.2484C13.5798 14.625 13.8484 14.8936 13.8484 15.225C13.8484 15.5564 13.5798 15.825 13.2484 15.825H8.24844C7.91707 15.825 7.64844 15.5564 7.64844 15.225Z" fill="#646464"/>
<path id="Vector_4" fillRule="evenodd" clipRule="evenodd" d="M1.39844 5.35C1.39844 2.80949 3.45793 0.75 5.99844 0.75C7.57407 0.75 8.96468 1.54219 9.7937 2.75H17.9984C19.4344 2.75 20.5984 3.91406 20.5984 5.35V16.6C20.5984 16.7541 20.5392 16.9022 20.4329 17.0138L15.4329 22.2638C15.3197 22.3827 15.1626 22.45 14.9984 22.45H5.99844C4.5625 22.45 3.39844 21.2859 3.39844 19.85V9.14526C2.19063 8.31624 1.39844 6.92563 1.39844 5.35ZM5.99844 1.95C4.12067 1.95 2.59844 3.47223 2.59844 5.35C2.59844 7.22777 4.12067 8.75 5.99844 8.75C7.87621 8.75 9.39844 7.22777 9.39844 5.35C9.39844 3.47223 7.87621 1.95 5.99844 1.95ZM10.5984 5.35C10.5984 4.86184 10.5224 4.39144 10.3815 3.95H17.9984C18.7716 3.95 19.3984 4.5768 19.3984 5.35V16H16.9984C15.5625 16 14.3984 17.1641 14.3984 18.6V21.25H5.99844C5.22524 21.25 4.59844 20.6232 4.59844 19.85V9.73308C5.03988 9.87396 5.51028 9.95 5.99844 9.95C6.70425 9.95 7.37294 9.79104 7.97065 9.50696C8.0537 9.55042 8.1482 9.575 8.24844 9.575H15.7484C16.0798 9.575 16.3484 9.30637 16.3484 8.975C16.3484 8.64363 16.0798 8.375 15.7484 8.375H9.46398C10.1704 7.56633 10.5984 6.50815 10.5984 5.35ZM18.5984 17.2H16.9984C16.2252 17.2 15.5984 17.8268 15.5984 18.6V20.35L18.5984 17.2Z" fill="#646464"/>
</g>
</svg>
