<svg width="24" height="24" viewBox="0 0 24 24" fill="none" xmlns="http://www.w3.org/2000/svg">
<g id="SVG">
<path id="Vector" fillRule="evenodd" clipRule="evenodd" d="M12.9993 4.98302C12.6062 4.13066 11.3948 4.13066 11.0016 4.98302L9.90349 7.36374L7.29995 7.67243C6.36782 7.78295 5.99347 8.93508 6.68262 9.57238L8.60748 11.3524L8.09653 13.924C7.91359 14.8446 8.89364 15.5567 9.71272 15.0982L12.0005 13.8176L14.2882 15.0982C15.1073 15.5567 16.0874 14.8446 15.9044 13.924L15.3935 11.3524L17.3183 9.57239C18.0075 8.93508 17.6331 7.78295 16.701 7.67243L14.0975 7.36374L12.9993 4.98302ZM10.9697 7.91719L12.0005 5.6825L13.0312 7.91719C13.1915 8.26458 13.5207 8.50376 13.9006 8.54881L16.3444 8.83856L14.5376 10.5094C14.2568 10.7692 14.131 11.1562 14.2056 11.5314L14.6852 13.9452L12.5378 12.7431C12.2039 12.5563 11.797 12.5563 11.4632 12.7431L9.31577 13.9452L9.79538 11.5314C9.86994 11.1562 9.74419 10.7692 9.46332 10.5094L7.65653 8.83856L10.1004 8.54881C10.4803 8.50376 10.8095 8.26458 10.9697 7.91719Z" fill="#646464"/>
<path id="Vector_2" fillRule="evenodd" clipRule="evenodd" d="M12 19C12.1766 19 12.3519 18.9949 12.526 18.9849L14.9336 23.155C15.1333 23.5008 15.6378 23.4846 15.8148 23.1266L16.851 21.0308C16.9405 20.8499 17.13 20.7405 17.3314 20.7535L19.6645 20.9039C20.0631 20.9297 20.3294 20.5008 20.1297 20.155L18.0917 16.6251C19.8797 14.9802 21 12.621 21 10C21 5.02944 16.9706 1 12 1C7.02944 1 3 5.02944 3 10C3 12.6204 4.11992 14.9793 5.90723 16.6241L3.86868 20.155C3.669 20.5008 3.93535 20.9297 4.33387 20.9039L6.66698 20.7535C6.86841 20.7405 7.0579 20.8499 7.14737 21.0308L8.18361 23.1266C8.36061 23.4846 8.86516 23.5008 9.06483 23.155L11.4725 18.9848C11.647 18.9949 11.8229 19 12 19ZM12 17.8C16.3078 17.8 19.8 14.3078 19.8 10C19.8 5.69218 16.3078 2.2 12 2.2C7.69218 2.2 4.2 5.69218 4.2 10C4.2 14.3078 7.69218 17.8 12 17.8ZM15.3188 21.4223L13.8147 18.817C15.0325 18.5677 16.1606 18.0724 17.145 17.3853L18.4365 19.6223L17.4087 19.556C16.7238 19.5118 16.0795 19.8838 15.7754 20.499L15.3188 21.4223ZM5.56189 19.6223L6.85385 17.3845C7.83812 18.0717 8.9662 18.5672 10.1839 18.8167L8.67958 21.4223L8.22306 20.499C7.91888 19.8838 7.27462 19.5118 6.58975 19.556L5.56189 19.6223Z" fill="#646464"/>
</g>
</svg>
