<svg width="24" height="24" viewBox="0 0 24 24" fill="none" xmlns="http://www.w3.org/2000/svg">
<g id="SVG">
<path id="Vector" fillRule="evenodd" clipRule="evenodd" d="M12 11.5C13.6569 11.5 15 10.1569 15 8.5C15 6.84315 13.6569 5.5 12 5.5C10.3431 5.5 9 6.84315 9 8.5C9 10.1569 10.3431 11.5 12 11.5ZM12 10.3C12.9941 10.3 13.8 9.49411 13.8 8.5C13.8 7.50589 12.9941 6.7 12 6.7C11.0059 6.7 10.2 7.50589 10.2 8.5C10.2 9.49411 11.0059 10.3 12 10.3Z" fill="#646464"/>
<path id="Vector_2" fillRule="evenodd" clipRule="evenodd" d="M16.9999 18.1587L17 17.1582C17 14.3968 14.7614 12.1582 12 12.1582C9.23858 12.1582 7 14.3968 7 17.1582V18.1597C7 19.2643 7.89543 20.1582 9 20.1582H15C16.1044 20.1582 16.9998 19.2631 16.9999 18.1587ZM8.2 18.1597C8.2 18.6004 8.55696 18.9582 9 18.9582H15C15.4418 18.9582 15.7999 18.6002 15.7999 18.1586L15.8 17.1582C15.8 15.0595 14.0987 13.3582 12 13.3582C9.90132 13.3582 8.2 15.0595 8.2 17.1582V18.1597Z" fill="#646464"/>
<path id="Vector_3" fillRule="evenodd" clipRule="evenodd" d="M1 9.29822V20.9997C1 22.1042 1.89543 22.9997 3 22.9997H21C22.1046 22.9997 23 22.1042 23 20.9997V9.29822C23 8.24443 22.4471 7.26791 21.5435 6.72574L13.029 1.61705C12.3956 1.23703 11.6044 1.23703 10.971 1.61705L2.45651 6.72574C1.5529 7.26791 1 8.24443 1 9.29822ZM2.2 20.9997V9.29822C2.2 8.66595 2.53174 8.08004 3.07391 7.75473L11.5884 2.64604C11.8417 2.49403 12.1583 2.49403 12.4116 2.64604L20.9261 7.75473C21.4683 8.08004 21.8 8.66595 21.8 9.29822V20.9997C21.8 21.4415 21.4418 21.7997 21 21.7997H3C2.55817 21.7997 2.2 21.4415 2.2 20.9997Z" fill="#646464"/>
</g>
</svg>
