<svg width="24" height="24" viewBox="0 0 24 24" fill="none" xmlns="http://www.w3.org/2000/svg">
<g id="SVG">
<path id="Vector" d="M9.39844 2.99941C9.39844 2.66804 9.66707 2.39941 9.99844 2.39941H12.9984C13.3298 2.39941 13.5984 2.66804 13.5984 2.99941C13.5984 3.33079 13.3298 3.59941 12.9984 3.59941H9.99844C9.66707 3.59941 9.39844 3.33079 9.39844 2.99941Z" fill="#222222"/>
<path id="Vector_2" d="M14.9008 2.39941C14.5694 2.39941 14.3008 2.66804 14.3008 2.99941C14.3008 3.33079 14.5694 3.59941 14.9008 3.59941H15.0008C15.3321 3.59941 15.6008 3.33079 15.6008 2.99941C15.6008 2.66804 15.3321 2.39941 15.0008 2.39941H14.9008Z" fill="#222222"/>
<path id="Vector_3" d="M10.7733 11.5752C10.539 11.3409 10.1591 11.3409 9.92476 11.5752C9.69044 11.8096 9.69044 12.1895 9.92476 12.4238L10.9854 13.4844C11.415 13.914 12.1115 13.914 12.5411 13.4844L14.3088 11.7167C14.5431 11.4824 14.5431 11.1025 14.3088 10.8681C14.0745 10.6338 13.6946 10.6338 13.4603 10.8681L11.7632 12.5652L10.7733 11.5752Z" fill="#222222"/>
<path id="Vector_4" fillRule="evenodd" clipRule="evenodd" d="M17.2008 11.9993C17.2008 14.8712 14.8727 17.1993 12.0008 17.1993C9.1289 17.1993 6.80078 14.8712 6.80078 11.9993C6.80078 9.12744 9.1289 6.79932 12.0008 6.79932C14.8727 6.79932 17.2008 9.12744 17.2008 11.9993ZM12.0008 15.9993C14.2099 15.9993 16.0008 14.2085 16.0008 11.9993C16.0008 9.79018 14.2099 7.99932 12.0008 7.99932C9.79165 7.99932 8.00078 9.79018 8.00078 11.9993C8.00078 14.2085 9.79165 15.9993 12.0008 15.9993Z" fill="#222222"/>
<path id="Vector_5" fillRule="evenodd" clipRule="evenodd" d="M17.352 0.399414C18.7879 0.399414 20.302 1.56347 19.952 2.99941V20.9994C19.952 22.4354 18.7879 23.5994 17.352 23.5994H6.75195C5.31601 23.5994 3.90195 22.4354 4.15195 20.9994V2.99941C4.15195 1.56347 5.06602 0.399414 6.75196 0.399414H17.352ZM18.752 2.99941C19.102 2.22622 18.1252 1.59941 17.352 1.59941H6.75196C5.72876 1.59941 5.35196 2.22622 5.35196 2.99941L5.35195 20.9994C5.10195 21.7726 5.97876 22.3994 6.75195 22.3994H17.352C18.1252 22.3994 18.752 21.7726 18.752 20.9994V2.99941Z" fill="#222222"/>
</g>
</svg>
